<svg xmlns="http://www.w3.org/2000/svg" viewBox="0 0 24 24" id="playlist"><path d="m4.25,6c0-.414.336-.75.75-.75h14c.414,0,.75.336.75.75s-.336.75-.75.75H5c-.414,0-.75-.336-.75-.75Zm5.75,11.25h-5c-.414,0-.75.336-.75.75s.336.75.75.75h5c.414,0,.75-.336.75-.75s-.336-.75-.75-.75Zm9-8H5c-.414,0-.75.336-.75.75s.336.75.75.75h14c.414,0,.75-.336.75-.75s-.336-.75-.75-.75Zm-9,4h-5c-.414,0-.75.336-.75.75s.336.75.75.75h5c.414,0,.75-.336.75-.75s-.336-.75-.75-.75Zm9,2h-2.25v-2.25c0-.414-.336-.75-.75-.75s-.75.336-.75.75v2.25h-2.25c-.414,0-.75.336-.75.75s.336.75.75.75h2.25v2.25c0,.414.336.75.75.75s.75-.336.75-.75v-2.25h2.25c.414,0,.75-.336.75-.75s-.336-.75-.75-.75Z"></path></svg>